<mxfile host="app.diagrams.net" agent="Mozilla/5.0 (Windows NT 10.0; Win64; x64) AppleWebKit/537.36 (KHTML, like Gecko) Chrome/138.0.0.0 Safari/537.36" version="28.0.5">
  <diagram name="Finolyzer HLD" id="FinolyzerArch">
    <mxGraphModel dx="786" dy="417" grid="1" gridSize="10" guides="1" tooltips="1" connect="1" arrows="1" fold="1" page="1" pageScale="1" pageWidth="827" pageHeight="1169" math="0" shadow="0">
      <root>
        <mxCell id="0" />
        <mxCell id="1" parent="0" />
        <mxCell id="2" value="Portfolio" style="rounded=1;fillColor=#e1f5fe;strokeColor=#039be5;fontSize=14;fontStyle=1;" parent="1" vertex="1">
          <mxGeometry x="20" y="40" width="140" height="60" as="geometry" />
        </mxCell>
        <mxCell id="3" value="ApplicationSystem" style="rounded=1;fillColor=#ede7f6;strokeColor=#673ab7;fontSize=14;" parent="1" vertex="1">
          <mxGeometry x="200" y="40" width="160" height="60" as="geometry" />
        </mxCell>
        <mxCell id="4" value="SystemDependency" style="rounded=1;fillColor=#fff3e0;strokeColor=#f57c00;fontSize=14;" parent="1" vertex="1">
          <mxGeometry x="420" y="40" width="160" height="60" as="geometry" />
        </mxCell>
        <mxCell id="5" value="Server" style="rounded=1;fillColor=#e8f5e9;strokeColor=#43a047" parent="1" vertex="1">
          <mxGeometry x="620" y="20" width="120" height="40" as="geometry" />
        </mxCell>
        <mxCell id="6" value="ProviderSubscription" style="rounded=1;fillColor=#e8f5e9;strokeColor=#43a047" parent="1" vertex="1">
          <mxGeometry x="620" y="70" width="140" height="40" as="geometry" />
        </mxCell>
        <mxCell id="7" value="IntegrationService" style="rounded=1;fillColor=#e6ee9c;strokeColor=#c0ca33" parent="1" vertex="1">
          <mxGeometry x="620" y="120" width="140" height="40" as="geometry" />
        </mxCell>
        <mxCell id="8" value="SharedService" style="rounded=1;fillColor=#fce4ec;strokeColor=#d81b60" parent="1" vertex="1">
          <mxGeometry x="620" y="170" width="120" height="40" as="geometry" />
        </mxCell>
        <mxCell id="9" value="Resource" style="rounded=1;fillColor=#f3e5f5;strokeColor=#8e24aa" parent="1" vertex="1">
          <mxGeometry x="620" y="220" width="100" height="40" as="geometry" />
        </mxCell>
        <mxCell id="10" value="SystemIntegrationTransaction" style="rounded=1;fillColor=#ffe0b2;strokeColor=#fb8c00" parent="1" vertex="1">
          <mxGeometry x="220" y="220" width="220" height="50" as="geometry" />
        </mxCell>
        <mxCell id="11" value="CostSummaryRequest" style="rounded=1;fillColor=#d1c4e9;strokeColor=#5e35b1" parent="1" vertex="1">
          <mxGeometry x="20" y="140" width="160" height="50" as="geometry" />
        </mxCell>
        <mxCell id="12" style="endArrow=classic;strokeColor=#616161" parent="1" source="2" target="3" edge="1">
          <mxGeometry relative="1" as="geometry" />
        </mxCell>
        <mxCell id="13" style="endArrow=classic;strokeColor=#616161" parent="1" source="3" target="4" edge="1">
          <mxGeometry relative="1" as="geometry" />
        </mxCell>
        <mxCell id="14" style="endArrow=classic;strokeColor=#616161" parent="1" source="4" target="5" edge="1">
          <mxGeometry relative="1" as="geometry" />
        </mxCell>
        <mxCell id="15" style="endArrow=classic;strokeColor=#616161" parent="1" source="4" target="6" edge="1">
          <mxGeometry relative="1" as="geometry" />
        </mxCell>
        <mxCell id="16" style="endArrow=classic;strokeColor=#616161" parent="1" source="4" target="7" edge="1">
          <mxGeometry relative="1" as="geometry" />
        </mxCell>
        <mxCell id="17" style="endArrow=classic;strokeColor=#616161" parent="1" source="4" target="8" edge="1">
          <mxGeometry relative="1" as="geometry" />
        </mxCell>
        <mxCell id="18" style="endArrow=classic;strokeColor=#616161" parent="1" source="4" target="9" edge="1">
          <mxGeometry relative="1" as="geometry" />
        </mxCell>
        <mxCell id="19" style="endArrow=classic;strokeColor=#616161" parent="1" source="7" target="10" edge="1">
          <mxGeometry relative="1" as="geometry" />
        </mxCell>
        <mxCell id="20" style="endArrow=classic;strokeColor=#616161" parent="1" source="11" target="3" edge="1">
          <mxGeometry relative="1" as="geometry" />
        </mxCell>
        <mxCell id="V53L27k12TXG8vNOpAgL-20" value="&#xa;  &#xa;    &#xa;      &#xa;        &#xa;        &#xa;&#xa;        &#xa;        &#xa;          &#xa;        &#xa;        (Finance / IT Engineer)&quot; style=&quot;shape=actor;fillColor=#ffffff&quot; vertex=&quot;1&quot; parent=&quot;sc&quot;&amp;gt;&#xa;          &#xa;        &#xa;        &#xa;          &#xa;        &#xa;        &#xa;          &#xa;        &#xa;&#xa;        &#xa;        &#xa;          &#xa;        &#xa;        &#xa;          &#xa;        &#xa;        - AppServices&lt;br&gt;- Dependency Logic&quot; style=&quot;rounded=1;fillColor=#bbdefb;strokeColor=#2196f3&quot; vertex=&quot;1&quot; parent=&quot;cv&quot;&amp;gt;&#xa;          &#xa;        &#xa;        - Entities&lt;br&gt;- Cost Calculators&quot; style=&quot;rounded=1;fillColor=#f0f4c3;strokeColor=#afb42b&quot; vertex=&quot;1&quot; parent=&quot;cv&quot;&amp;gt;&#xa;          &#xa;        &#xa;        &#xa;          &#xa;        &#xa;        (Rotativa, ClosedXML)&quot; style=&quot;rounded=1;fillColor=#ffe0b2;strokeColor=#fb8c00&quot; vertex=&quot;1&quot; parent=&quot;cv&quot;&amp;gt;&#xa;          &#xa;        &#xa;&#xa;        &#xa;        &#xa;          &#xa;        &#xa;        &#xa;          &#xa;        &#xa;        &#xa;          &#xa;        &#xa;        &#xa;          &#xa;        &#xa;        &#xa;          &#xa;        &#xa;        &#xa;          &#xa;        &#xa;        &#xa;          &#xa;        &#xa;        &#xa;          &#xa;        &#xa;        &#xa;          &#xa;        &#xa;        &#xa;          &#xa;        &#xa;&#xa;      &#xa;    &#xa;  &#xa;" style="text;whiteSpace=wrap;html=1;" vertex="1" parent="1">
          <mxGeometry width="560" height="1190" as="geometry" />
        </mxCell>
        <mxCell id="V53L27k12TXG8vNOpAgL-21" value="&#xa;  &#xa;    &#xa;      &#xa;        &#xa;        &#xa;&#xa;        &#xa;        &#xa;          &#xa;        &#xa;        (Finance / IT Engineer)&quot; style=&quot;shape=actor;fillColor=#ffffff&quot; vertex=&quot;1&quot; parent=&quot;sc&quot;&amp;gt;&#xa;          &#xa;        &#xa;        &#xa;          &#xa;        &#xa;        &#xa;          &#xa;        &#xa;&#xa;        &#xa;        &#xa;          &#xa;        &#xa;        &#xa;          &#xa;        &#xa;        - AppServices&lt;br&gt;- Dependency Logic&quot; style=&quot;rounded=1;fillColor=#bbdefb;strokeColor=#2196f3&quot; vertex=&quot;1&quot; parent=&quot;cv&quot;&amp;gt;&#xa;          &#xa;        &#xa;        - Entities&lt;br&gt;- Cost Calculators&quot; style=&quot;rounded=1;fillColor=#f0f4c3;strokeColor=#afb42b&quot; vertex=&quot;1&quot; parent=&quot;cv&quot;&amp;gt;&#xa;          &#xa;        &#xa;        &#xa;          &#xa;        &#xa;        (Rotativa, ClosedXML)&quot; style=&quot;rounded=1;fillColor=#ffe0b2;strokeColor=#fb8c00&quot; vertex=&quot;1&quot; parent=&quot;cv&quot;&amp;gt;&#xa;          &#xa;        &#xa;&#xa;        &#xa;        &#xa;          &#xa;        &#xa;        &#xa;          &#xa;        &#xa;        &#xa;          &#xa;        &#xa;        &#xa;          &#xa;        &#xa;        &#xa;          &#xa;        &#xa;        &#xa;          &#xa;        &#xa;        &#xa;          &#xa;        &#xa;        &#xa;          &#xa;        &#xa;        &#xa;          &#xa;        &#xa;        &#xa;          &#xa;        &#xa;&#xa;      &#xa;    &#xa;  &#xa;" style="text;whiteSpace=wrap;html=1;" vertex="1" parent="1">
          <mxGeometry width="560" height="1190" as="geometry" />
        </mxCell>
      </root>
    </mxGraphModel>
  </diagram>
</mxfile>
